# xmcd CD database file
#
# Track frame offsets:
#	150
#	38066
#	69266
#	96898
#	133455
#	169725
#	193758
#	212096
#	221532
#
# Disc length: 3318 seconds
#
# Revision: 0
# Processed by: cddbd v1.5.2PL0 Copyright (c) Steve Scherf et al.
# Submitted via: CDex 1.51
#
DISCID=860cf409
DTITLE=Fabian Almazan - Rhizome
DYEAR=2014
DGENRE=Jazz
TTITLE0=Rhizome
TTITLE1=Jambo
TTITLE2=Espejos
TTITLE3=A New Child in a New Place
TTITLE4=Hacia el Aire
TTITLE5=The Elders
TTITLE6=Stormy Weather
TTITLE7=El Coqui's Dream
TTITLE8=Sol del Mar
EXTD=YEAR: 2014
EXTT0=
EXTT1=
EXTT2=
EXTT3=
EXTT4=
EXTT5=
EXTT6=
EXTT7=
EXTT8=
PLAYORDER=
